<svg width="70" height="67" viewBox="0 0 70 67" fill="none" xmlns="http://www.w3.org/2000/svg">
<path d="M22.7501 45.7553C22.4887 45.7553 22.2273 45.8008 21.9779 45.897C20.5604 46.4443 19.0697 46.7952 17.5001 46.7952C15.9306 46.7952 14.4398 46.4443 13.0212 45.897C12.7719 45.8008 12.5116 45.7553 12.2501 45.7553C5.46235 45.7553 -0.035917 52.3171 0.000176693 60.3944C0.0154892 63.8079 2.37689 66.5532 5.25016 66.5532H29.7501C32.6234 66.5532 34.9848 63.8079 35.0001 60.3944C35.0362 52.3171 29.5379 45.7553 22.7501 45.7553ZM17.5001 41.5958C23.2992 41.5958 28.0001 36.0089 28.0001 29.117C28.0001 22.2251 23.2992 16.6383 17.5001 16.6383C11.7011 16.6383 7.00016 22.2251 7.00016 29.117C7.00016 36.0089 11.7011 41.5958 17.5001 41.5958ZM64.75 0H22.7501C19.855 0 17.5001 2.89221 17.5001 6.44604V12.4787C20.0617 12.4787 22.4329 13.36 24.5001 14.7925V8.31915H63V45.7553H56V37.4362H42.0001V45.7553H33.6613C35.7504 47.9248 37.2838 50.7897 38.0024 54.0745H64.75C67.6452 54.0745 70 51.1823 70 47.6284V6.44604C70 2.89221 67.6452 0 64.75 0Z" fill="#228891"/>
</svg>
