<svg width="70" height="70" viewBox="0 0 70 70" fill="none" xmlns="http://www.w3.org/2000/svg">
<path d="M34.9709 5.83331C18.8709 5.83331 5.8042 18.9 5.8042 35C5.8042 51.1 18.8709 64.1667 34.9709 64.1667C51.0709 64.1667 64.1375 51.1 64.1375 35C64.1375 18.9 51.0709 5.83331 34.9709 5.83331ZM45.5 24.325C48.6209 24.325 51.1292 26.8333 51.1292 29.9542C51.1292 33.075 48.6209 35.5833 45.5 35.5833C42.3792 35.5833 39.8709 33.075 39.8709 29.9542C39.8417 26.8333 42.3792 24.325 45.5 24.325ZM28 19.7166C31.7917 19.7166 34.8834 22.8083 34.8834 26.6C34.8834 30.3916 31.7917 33.4833 28 33.4833C24.2084 33.4833 21.1167 30.3916 21.1167 26.6C21.1167 22.7791 24.1792 19.7166 28 19.7166ZM28 46.3458V57.2833C21 55.0958 15.4584 49.7 13.0084 42.8167C16.0709 39.55 23.7125 37.8875 28 37.8875C29.5459 37.8875 31.5 38.1208 33.5417 38.5291C28.7584 41.0667 28 44.4208 28 46.3458ZM34.9709 58.3333C34.1834 58.3333 33.425 58.3041 32.6667 58.2166V46.3458C32.6667 42.2042 41.2417 40.1333 45.5 40.1333C48.6209 40.1333 54.0167 41.2708 56.7 43.4875C53.2875 52.15 44.8584 58.3333 34.9709 58.3333Z" fill="#228891"/>
</svg>
